<?xml version="1.0" encoding="UTF-8" standalone="no"?>
<!DOCTYPE svg PUBLIC "-//W3C//DTD SVG 1.1//EN" "http://www.w3.org/Graphics/SVG/1.1/DTD/svg11.dtd">
<svg width="100%" height="100%" viewBox="0 0 572 549" version="1.1" xmlns="http://www.w3.org/2000/svg" xmlns:xlink="http://www.w3.org/1999/xlink" xml:space="preserve" style="fill-rule:evenodd;clip-rule:evenodd;stroke-linecap:round;stroke-linejoin:round;stroke-miterlimit:1.5;">
    <g transform="matrix(1.22293,5.55112e-17,-5.55112e-17,1.22293,-2314.37,-1404.12)">
        <g transform="matrix(1.08747,0,0,-1.08747,347.47,3076.22)">
            <path d="M1635.49,1373.02L1821.42,1508.1L1750.4,1726.66L1520.59,1726.66L1449.57,1508.1L1635.49,1373.02Z" style="fill:rgb(41,165,41);"/>
        </g>
        <path d="M2183,1152C2204.25,1152 2221.5,1169.25 2221.5,1190.5L2221.5,1241.55L2270.07,1225.77C2290.28,1219.2 2312.02,1230.28 2318.58,1250.48L2353.81,1358.9C2360.38,1379.11 2349.3,1400.85 2329.09,1407.42L2280.54,1423.19L2310.56,1464.51C2323.05,1481.7 2319.24,1505.8 2302.04,1518.28L2209.82,1585.29C2192.63,1597.78 2168.53,1593.97 2156.04,1576.77L2126.03,1535.48L2096.02,1576.79C2083.53,1593.98 2059.43,1597.8 2042.24,1585.31L1950.01,1518.3C1932.82,1505.81 1929.01,1481.72 1941.5,1464.53L1971.5,1423.23L1922.93,1407.45C1902.72,1400.88 1891.64,1379.14 1898.21,1358.93L1933.44,1250.51C1940.01,1230.31 1961.74,1219.23 1981.95,1225.8L2030.5,1241.57L2030.5,1190.5C2030.5,1169.25 2047.75,1152 2069,1152L2183,1152ZM2126.01,1455.82L2204.78,1398.6L2174.7,1306L2077.34,1306L2047.25,1398.6L2126.01,1455.82Z" style="fill:white;stroke:rgb(255,194,0);stroke-width:7.67px;"/>
        <g transform="matrix(0.646735,0.475066,0.475066,-0.646735,322.882,1606.33)">
            <path d="M1635.49,1373.02L1821.42,1508.1L1750.4,1726.66L1520.59,1726.66L1449.57,1508.1L1635.49,1373.02Z" style="fill:rgb(41,165,41);"/>
        </g>
        <g transform="matrix(0.551604,0.410045,-0.410045,0.551604,1516.3,-257.239)">
            <path d="M2183,1152C2204.25,1152 2221.5,1169.25 2221.5,1190.5L2221.5,1241.55L2270.07,1225.77C2290.28,1219.2 2312.02,1230.28 2318.58,1250.48L2353.81,1358.9C2360.38,1379.11 2349.3,1400.85 2329.09,1407.42L2280.54,1423.19L2310.56,1464.51C2323.05,1481.7 2319.24,1505.8 2302.04,1518.28L2209.82,1585.29C2192.63,1597.78 2168.53,1593.97 2156.04,1576.77L2126.03,1535.48L2096.02,1576.79C2083.53,1593.98 2059.43,1597.8 2042.24,1585.31L1950.01,1518.3C1932.82,1505.81 1929.01,1481.72 1941.5,1464.53L1971.5,1423.23L1922.93,1407.45C1902.72,1400.88 1891.64,1379.14 1898.21,1358.93L1933.44,1250.51C1940.01,1230.31 1961.74,1219.23 1981.95,1225.8L2030.5,1241.57L2030.5,1190.5C2030.5,1169.25 2047.75,1152 2069,1152L2183,1152ZM2126.01,1455.82L2204.78,1398.6L2174.7,1306L2077.34,1306L2047.25,1398.6L2126.01,1455.82Z" style="fill:white;stroke:rgb(255,194,0);stroke-width:11.15px;"/>
        </g>
        <g transform="matrix(0.309017,-0.951057,0.951057,0.309017,163.238,2970.68)">
            <circle cx="2126" cy="1373" r="67" style="fill:rgb(255,194,0);"/>
        </g>
    </g>
</svg>
